<svg viewBox="0 0 192 249.38" width="50" height="50"><path fill="#f27128" d="M70.53,200.93a70.61,70.61,0,0,1-28.66-29.36q-10.12-19.11-10.13-44.74,0-25.39,10.13-44.51A70.67,70.67,0,0,1,70.53,53q18.52-10.24,43.23-10.25,29.58,0,52,15.61a18.27,18.27,0,0,1,5.71,6.06,17.77,17.77,0,0,1,1.75,8.39A18.78,18.78,0,0,1,169.1,85a12.36,12.36,0,0,1-9.91,5A17.81,17.81,0,0,1,152.9,89a37.34,37.34,0,0,1-6.52-3.38,66.44,66.44,0,0,0-15.38-7,53.54,53.54,0,0,0-14.91-2.09Q95.35,76.5,85.21,89T75.08,126.83q0,25.63,10.13,38.1t30.88,12.46a41.63,41.63,0,0,0,13.51-2.21q6.53-2.22,16.78-6.88c3.26-1.7,5.67-2.87,7.22-3.49a15.07,15.07,0,0,1,5.59-.93,12.36,12.36,0,0,1,9.91,5,18.8,18.8,0,0,1,4.08,12.23,15.89,15.89,0,0,1-7.46,14.45q-22.36,15.62-52,15.61Q89.06,211.18,70.53,200.93Z" transform="translate(-31.74 -2.81)"></path><path fill="gray" d="M191.23,245.78q-5.47-6.42-5.47-16.16V25.38q0-9.75,5.36-16.16a17.11,17.11,0,0,1,13.74-6.41,16.9,16.9,0,0,1,13.52,6.41q5.35,6.42,5.36,16.16V229.62q0,9.75-5.36,16.16a16.9,16.9,0,0,1-13.52,6.41A17.21,17.21,0,0,1,191.23,245.78Z" transform="translate(-31.74 -2.81)"></path></svg>